<svg width="24" height="24" viewBox="0 0 138 140" xmlns="http://www.w3.org/2000/svg" xmlns:xlink="http://www.w3.org/1999/xlink" xml:space="preserve" overflow="hidden"><g transform="translate(-1572 -973)"><g><g><g><path d="M1671.55 1035.17 1677.61 1041.24C1678.17 1041.8 1678.27 1042.67 1677.86 1043.35L1672.84 1051.55 1683 1048.01C1683.62 1047.79 1684.31 1047.95 1684.78 1048.41L1692.17 1055.81C1692.84 1056.48 1692.84 1057.56 1692.17 1058.23L1666.69 1083.72 1632.7 1049.74 1658.19 1024.25C1658.86 1023.58 1659.95 1023.58 1660.62 1024.25L1664.26 1027.89 1650.91 1041.24C1650.23 1041.9 1650.21 1042.99 1650.87 1043.67 1651.53 1044.35 1652.62 1044.37 1653.3 1043.71 1653.31 1043.7 1653.33 1043.68 1653.34 1043.67L1666.69 1030.32 1669.12 1032.75 1660.62 1041.24C1659.94 1041.9 1659.92 1042.99 1660.58 1043.67 1661.24 1044.35 1662.33 1044.37 1663.01 1043.71 1663.02 1043.7 1663.04 1043.68 1663.05 1043.67Z" fill="#FFC107" fill-rule="evenodd"/><path d="M1632.71 1069.17 1624.2 1060.67C1620.85 1057.33 1620.84 1051.9 1624.18 1048.56 1624.19 1048.55 1624.2 1048.54 1624.2 1048.54L1629.06 1043.68C1629.73 1043.01 1630.82 1043.01 1631.49 1043.68L1672.76 1084.95C1673.43 1085.62 1673.43 1086.7 1672.76 1087.37L1667.9 1092.23C1664.55 1095.57 1659.12 1095.58 1655.77 1092.23L1647.27 1083.73 1632.7 1098.3C1628.75 1102.39 1622.23 1102.5 1618.14 1098.55 1614.05 1094.6 1613.93 1088.08 1617.88 1083.98 1617.97 1083.9 1618.05 1083.81 1618.14 1083.73Z" fill="#795548" fill-rule="evenodd"/><path d="M35.5968 70.713C35.5968 72.6092 34.0597 74.1464 32.1635 74.1464 30.2673 74.1464 28.7302 72.6092 28.7302 70.713 28.7302 68.8168 30.2673 67.2797 32.1635 67.2797 34.0597 67.2797 35.5968 68.8168 35.5968 70.713Z" fill="#F5F5F5" fill-rule="evenodd" transform="matrix(0.707107 0.707107 0.707107 -0.707107 1552.68 1118.29)"/><path d="M1687.25 1071.92C1687.62 1071.21 1688.03 1070.47 1688.47 1069.72 1689.57 1067.83 1690.74 1065.97 1691.98 1064.16 1692.51 1063.38 1693.58 1063.18 1694.36 1063.72 1694.53 1063.84 1694.68 1063.99 1694.8 1064.16 1696.03 1065.97 1697.2 1067.83 1698.3 1069.72 1698.75 1070.47 1699.15 1071.21 1699.53 1071.92 1701.09 1074.88 1701.97 1077.18 1701.97 1078.87 1701.97 1083.61 1698.13 1087.45 1693.39 1087.45 1688.65 1087.45 1684.8 1083.61 1684.8 1078.87 1684.8 1077.18 1685.69 1074.88 1687.25 1071.92Z" fill="#FFC107" fill-rule="evenodd"/></g></g></g><path d="M1572 973 1607 973 1607 977.138C1603.35 977.378 1600.64 977.781 1598.86 978.346 1597.08 978.911 1595.91 980.061 1595.36 981.794 1594.81 983.527 1594.57 986.266 1594.62 990.009L1594.62 1043.85C1594.57 1047.69 1594.81 1050.49 1595.36 1052.26 1595.91 1054.02 1597.08 1055.18 1598.86 1055.72 1600.64 1056.27 1603.35 1056.62 1607 1056.79L1607 1061 1572 1061 1572 1056.79C1575.69 1056.62 1578.43 1056.25 1580.23 1055.69 1582.02 1055.13 1583.18 1053.96 1583.72 1052.19 1584.26 1050.42 1584.51 1047.64 1584.45 1043.85L1584.45 990.009C1584.51 986.266 1584.26 983.527 1583.72 981.794 1583.18 980.061 1582.02 978.911 1580.23 978.346 1578.43 977.781 1575.69 977.378 1572 977.138Z" fill="#FFC000" fill-rule="evenodd"/></g></svg>