<svg width="1689" height="1863" xmlns="http://www.w3.org/2000/svg" xmlns:xlink="http://www.w3.org/1999/xlink" xml:space="preserve" overflow="hidden"><defs><filter id="fx0" x="-10%" y="-10%" width="120%" height="120%" filterUnits="userSpaceOnUse" primitiveUnits="userSpaceOnUse"><feComponentTransfer color-interpolation-filters="sRGB"><feFuncR type="discrete" tableValues="0 0"/><feFuncG type="discrete" tableValues="0 0"/><feFuncB type="discrete" tableValues="0 0"/><feFuncA type="linear" slope="0.309804" intercept="0"/></feComponentTransfer><feGaussianBlur stdDeviation="7.12271 7.12963"/></filter><filter id="fx1" x="-10%" y="-10%" width="120%" height="120%" filterUnits="userSpaceOnUse" primitiveUnits="userSpaceOnUse"><feComponentTransfer color-interpolation-filters="sRGB"><feFuncR type="discrete" tableValues="0 0"/><feFuncG type="discrete" tableValues="0 0"/><feFuncB type="discrete" tableValues="0 0"/><feFuncA type="linear" slope="0.0509804" intercept="0"/></feComponentTransfer><feGaussianBlur stdDeviation="6.11111 6.13546"/></filter><filter id="fx2" x="-10%" y="-10%" width="120%" height="120%" filterUnits="userSpaceOnUse" primitiveUnits="userSpaceOnUse"><feComponentTransfer color-interpolation-filters="sRGB"><feFuncR type="discrete" tableValues="0 0"/><feFuncG type="discrete" tableValues="0 0"/><feFuncB type="discrete" tableValues="0 0"/><feFuncA type="linear" slope="0.0509804" intercept="0"/></feComponentTransfer><feGaussianBlur stdDeviation="6.11473 6.11493"/></filter><filter id="fx3" x="-10%" y="-10%" width="120%" height="120%" filterUnits="userSpaceOnUse" primitiveUnits="userSpaceOnUse"><feComponentTransfer color-interpolation-filters="sRGB"><feFuncR type="discrete" tableValues="0 0"/><feFuncG type="discrete" tableValues="0 0"/><feFuncB type="discrete" tableValues="0 0"/><feFuncA type="linear" slope="0.0509804" intercept="0"/></feComponentTransfer><feGaussianBlur stdDeviation="6.11111 6.11818"/></filter><clipPath id="clip4"><rect x="1274" y="138" width="1689" height="1863"/></clipPath><clipPath id="clip5"><rect x="-7.65924" y="-7.33331" width="359.318" height="301.667"/></clipPath><clipPath id="clip6"><rect x="0" y="0" width="343" height="288"/></clipPath><clipPath id="clip7"><rect x="-3.5" y="-6.52588" width="156" height="139.052"/></clipPath><clipPath id="clip8"><rect x="0" y="0" width="147" height="126"/></clipPath><linearGradient x1="1631.82" y1="456.919" x2="1818.41" y2="553.496" gradientUnits="userSpaceOnUse" spreadMethod="reflect" id="fill9"><stop offset="0" stop-color="#FFCA5A"/><stop offset="0.5" stop-color="#FFCA5A"/><stop offset="1" stop-color="#F19745"/></linearGradient><clipPath id="clip10"><rect x="-3.50208" y="-3.5022" width="855.005" height="807.004"/></clipPath><clipPath id="clip11"><rect x="0" y="0" width="846" height="800"/></clipPath><linearGradient x1="1813.49" y1="2249.48" x2="2404.27" y2="44.3765" gradientUnits="userSpaceOnUse" spreadMethod="reflect" id="fill12"><stop offset="0" stop-color="#FFCA5A"/><stop offset="0.5" stop-color="#FFCA5A"/><stop offset="1" stop-color="#F19745"/></linearGradient><linearGradient x1="3129.61" y1="1447.84" x2="995.389" y2="896.939" gradientUnits="userSpaceOnUse" spreadMethod="reflect" id="fill13"><stop offset="0" stop-color="#F8EA80"/><stop offset="0.0357143" stop-color="#F7E97F"/><stop offset="0.0714286" stop-color="#F7E97F"/><stop offset="0.107143" stop-color="#F7E97F"/><stop offset="0.142857" stop-color="#F7E97F"/><stop offset="0.178571" stop-color="#F7E87E"/><stop offset="0.214286" stop-color="#F7E87E"/><stop offset="0.25" stop-color="#F7E87D"/><stop offset="0.285714" stop-color="#F7E77D"/><stop offset="0.321429" stop-color="#F7E67C"/><stop offset="0.357143" stop-color="#F7E67B"/><stop offset="0.392857" stop-color="#F7E57A"/><stop offset="0.428571" stop-color="#F7E47A"/><stop offset="0.464286" stop-color="#F7E379"/><stop offset="0.5" stop-color="#F7E278"/><stop offset="0.535714" stop-color="#F7E177"/><stop offset="0.571429" stop-color="#F7E075"/><stop offset="0.607143" stop-color="#F7DF74"/><stop offset="0.642857" stop-color="#F7DE73"/><stop offset="0.678571" stop-color="#F7DD71"/><stop offset="0.714286" stop-color="#F7DC70"/><stop offset="0.75" stop-color="#F7DA6F"/><stop offset="0.785714" stop-color="#F7D96D"/><stop offset="0.821429" stop-color="#F7D86B"/><stop offset="0.857143" stop-color="#F7D66A"/><stop offset="0.892857" stop-color="#F7D468"/><stop offset="0.928571" stop-color="#F7D366"/><stop offset="0.964286" stop-color="#F7D164"/><stop offset="1" stop-color="#F7D063"/></linearGradient><clipPath id="clip14"><rect x="-6.5" y="-6.50751" width="232" height="445.014"/></clipPath><clipPath id="clip15"><rect x="0" y="0" width="222" height="433"/></clipPath><linearGradient x1="-4.20134e-14" y1="673.415" x2="673.415" y2="-4.20134e-14" gradientUnits="userSpaceOnUse" spreadMethod="reflect" id="fill16"><stop offset="0" stop-color="#FFCA5A"/><stop offset="0.5" stop-color="#FCD03C"/><stop offset="1" stop-color="#F7E563"/></linearGradient></defs><g clip-path="url(#clip4)" transform="translate(-1274 -138)"><g clip-path="url(#clip5)" filter="url(#fx0)" transform="matrix(3.00292 0 0 3 1625 882)"><g clip-path="url(#clip6)"><path d="M53.8057 34.927 37.7008 22.0016C36.3087 23.5104 34.9428 25.0365 33.6027 26.5881 32.2072 28.2358 30.8139 29.9016 29.4658 31.6149L29.4037 31.6856 29.3461 31.7632C28.0176 33.4794 26.7418 35.2408 25.4825 37.014 24.3059 38.6921 23.1543 40.3932 22.0404 42.114L38.1409 55.0433C43.978 59.7171 51.306 61.6878 57.7284 60.3058L313.977 265.887C316.303 265.86 318.654 265.792 320.967 265.599 320.609 263.267 320.145 260.942 319.629 258.623L63.3833 53.0499C63.2215 46.3916 59.6416 39.6066 53.8057 34.927Z" fill="#181717" fill-rule="evenodd"/></g></g><path d="M1760.65 960.854 1712.29 922.078C1708.1 926.604 1704 931.182 1699.98 935.837 1695.79 940.78 1691.6 945.778 1687.56 950.917L1687.37 951.13 1687.2 951.362C1683.21 956.511 1679.38 961.795 1675.59 967.115 1672.06 972.149 1668.6 977.252 1665.26 982.415L1713.61 1021.2C1731.13 1035.22 1753.14 1041.14 1772.43 1036.99L2541.92 1653.73C2548.9 1653.65 2555.96 1653.45 2562.91 1652.87 2561.84 1645.87 2560.44 1638.9 2558.89 1631.94L1789.41 1015.22C1788.92 995.247 1778.17 974.893 1760.65 960.854Z" fill="#181717" fill-rule="evenodd"/><g clip-path="url(#clip7)" filter="url(#fx1)" transform="matrix(2 0 0 1.99206 1571 414)"><g clip-path="url(#clip8)"><path d="M19.1304 57.7348 70.1277 22.5244 127.835 18.9645 103.874 71.7909 52.8763 107.001Z" fill="#FF0000" fill-rule="evenodd"/></g></g><path d="M1599.54 519.289 1701.53 449.147 1816.95 442.056 1769.02 547.289 1667.03 617.431Z" fill="url(#fill9)" fill-rule="evenodd"/><g clip-path="url(#clip10)" filter="url(#fx2)" transform="matrix(1.99882 0 0 1.99875 1273 403)"><g clip-path="url(#clip11)"><path d="M610.076 19.2041C807.697 122.507 884.16 366.459 780.86 564.086 677.561 761.713 433.617 838.179 235.997 734.876 38.3763 631.573-38.0863 387.621 65.2129 189.994 100.678 122.144 154.701 65.7758 220.983 27.4628L250.765 78.9901C86.1626 174.136 29.8542 384.709 124.997 549.317 220.14 713.925 430.705 770.236 595.308 675.09 759.911 579.944 816.219 369.371 721.076 204.763 688.412 148.249 640.354 102.187 582.507 71.9488Z" fill="#FF0000" fill-rule="evenodd"/></g></g><path d="M2482.71 431.662C2877.72 638.138 3030.55 1125.74 2824.08 1520.74 2617.6 1915.75 2130 2068.59 1734.99 1862.11 1339.98 1655.63 1187.15 1168.04 1393.63 773.028 1464.51 637.413 1572.5 524.747 1704.98 448.169L1764.51 551.159C1435.5 741.332 1322.95 1162.21 1513.12 1491.22 1703.3 1820.24 2124.18 1932.79 2453.19 1742.61 2782.2 1552.44 2894.75 1131.56 2704.58 802.547 2639.29 689.59 2543.23 597.524 2427.6 537.085Z" fill="url(#fill12)" fill-rule="evenodd"/><path d="M2915.75 1161.76C2907.54 1607.4 2539.62 1962.01 2093.97 1953.79 1648.33 1945.58 1293.73 1577.65 1301.95 1132.01 1307.15 849.5 1459.73 590.286 1704.21 448.615L1724.94 484.394C1359.06 696.418 1234.33 1164.91 1446.36 1530.79 1658.38 1896.68 2126.87 2021.4 2492.75 1809.38 2724.7 1674.97 2869.47 1429.04 2874.41 1161Z" fill="url(#fill13)" fill-rule="evenodd"/><g clip-path="url(#clip14)" filter="url(#fx3)" transform="matrix(2 0 0 1.99769 1923 137)"><g clip-path="url(#clip15)" transform="matrix(1 0 0 1 0 -1.42109e-14)"><path d="M132.093 0 200.509 94.7975 172.288 105.977 258.464 187.209 230.243 200.774 336.781 336.781 156.104 232.55 190.562 218.081 78.3015 151.317 118.528 130.69 0 60.6517Z" fill="#FF0000" fill-rule="evenodd" transform="matrix(-0.901196 0.433411 0.432911 0.902238 176.641 -35.7268)"/></g></g><path d="M264.128 0 400.931 189.554 344.502 211.908 516.815 374.338 460.385 401.461 673.415 673.415 312.14 464.999 381.041 436.067 156.569 302.569 237.005 261.322 0 121.277Z" fill="url(#fill16)" fill-rule="evenodd" transform="matrix(-0.901392 0.433005 0.433005 0.901392 2266.56 55.9062)"/></g></svg>