<svg width="1131" height="1396" xmlns="http://www.w3.org/2000/svg" xmlns:xlink="http://www.w3.org/1999/xlink" overflow="hidden"><defs><clipPath id="clip0"><rect x="1067" y="576" width="1131" height="1396"/></clipPath></defs><g clip-path="url(#clip0)" transform="translate(-1067 -576)"><path d="M1559.03 612.033C1558.75 593.839 1573.27 578.863 1591.46 578.584L1697.98 576.949C1716.17 576.669 1731.15 591.192 1731.43 609.386L1731.43 609.386C1731.71 627.58 1717.18 642.556 1698.99 642.835L1592.48 644.47C1574.28 644.75 1559.31 630.227 1559.03 612.033Z" fill="#FFCD00" fill-rule="evenodd"/><path d="M1646.21 786.743C1627.63 787.043 1609.12 788.961 1590.88 792.477L1597.14 1200.49C1597.87 1247.66 1618.72 1292.27 1654.44 1323.08 1689.2 1291.19 1708.67 1245.96 1707.95 1198.79L1701.68 790.776C1683.34 787.822 1664.78 786.472 1646.21 786.743Z" fill="#D0CECE" fill-rule="evenodd"/><path d="M1670.62 767.39 1670.25 734.868C1666.34 734.671 1662.44 734.526 1658.53 734.435 1654.41 734.375 1650.27 734.333 1646.11 734.395L1645.93 734.392 1645.75 734.398C1641.61 734.485 1637.47 734.684 1633.33 734.916 1629.43 735.149 1625.53 735.442 1621.64 735.796L1622 768.318C1622.15 780.095 1628.09 790.998 1637.89 797.455L1643.89 1314.86C1646.74 1317.67 1649.68 1320.47 1652.76 1323.1 1655.77 1320.34 1658.64 1317.46 1661.44 1314.52L1655.43 797.127C1665.07 790.296 1670.76 779.168 1670.62 767.39Z" fill="#AFABAB" fill-rule="evenodd"/><path d="M1648.06 788.305C1662.21 788.113 1676.35 789.178 1690.32 791.488L1688.04 643.026 1603.64 644.322 1605.91 792.779C1619.8 790.045 1633.9 788.548 1648.06 788.305Z" fill="#862E56" fill-rule="evenodd"/><path d="M1496.64 765.857C1496.36 747.059 1511.36 731.586 1530.16 731.298L1759.25 727.781C1778.05 727.492 1793.52 742.497 1793.81 761.295L1793.81 761.295C1794.1 780.093 1779.09 795.565 1760.3 795.854L1531.2 799.37C1512.4 799.659 1496.93 784.654 1496.64 765.856Z" fill="#222A35" fill-rule="evenodd"/><path d="M1744.52 982.702C1925.97 1049.91 2119.96 1281.71 2059.78 1515.96 1999.6 1750.21 1760.78 1891.4 1526.53 1831.21 1292.28 1771.03 1151.09 1532.21 1211.27 1297.96 1241.4 1180.68 1316.45 1087.22 1412.82 1030.25L1349.09 922.458C1225 995.566 1128.82 1115.9 1090.13 1266.51 1012.66 1568.04 1194.16 1875.04 1495.38 1952.43 1796.61 2029.82 2103.61 1848.32 2181.08 1546.79 2258.54 1245.27 2032.43 972.22 1814.57 892.979" fill="#3B3838" fill-rule="evenodd"/><path d="M675.538 0C359.669 0 104.433 255.87 104.433 571.423L0 480.738 161.257 818.721 165.701 827.926 344.54 522.028 237.982 561.718C249.08 440.978 303.693 160.488 675.857 126.984 673.11 73.5654 675.86 106.232 675.538 0Z" fill="#F2AA68" fill-rule="evenodd" transform="matrix(0.608556 0.793511 0.793511 -0.608556 778.135 1214.91)"/><path d="M2033.44 1260.27C2117.62 1557.14 1991.31 1701.4 1819.97 1802.51 1681.98 1853.6 1397.99 1886.67 1246.24 1598.31 1181.56 1437.78 1195.7 1400.22 1220.72 1283.94 1138.28 1347.35 1173.13 1231.27 1085.11 1272.97 1063.78 1381.36 1046.7 1477.43 1126.11 1654.54 1229.6 1903.9 1576.93 2062.44 1885.75 1915.1 2166.15 1779.83 2264.18 1440.18 2150.89 1213.32" fill="#FFC000" fill-rule="evenodd"/></g></svg>